<svg xmlns="http://www.w3.org/2000/svg" width="604" height="578" viewBox="0 0 604 578" version="1.1"><path d="M 316.569 0.888 C 316.267 1.377, 315.716 50.877, 315.345 110.888 C 314.728 210.689, 314.807 220, 316.276 220 C 317.159 220, 318.099 219.650, 318.363 219.221 C 318.766 218.570, 319.364 46.887, 319.087 11.250 C 319.009 1.173, 318.271 -1.865, 316.569 0.888 M 115.264 91.718 C 116.784 91.947, 119.034 91.941, 120.264 91.704 C 121.494 91.467, 120.250 91.279, 117.500 91.286 C 114.750 91.294, 113.744 91.488, 115.264 91.718 M 135.250 91.716 C 136.762 91.945, 139.238 91.945, 140.750 91.716 C 142.262 91.487, 141.025 91.300, 138 91.300 C 134.975 91.300, 133.738 91.487, 135.250 91.716 M 485.750 91.706 C 486.988 91.944, 489.012 91.944, 490.250 91.706 C 491.488 91.467, 490.475 91.272, 488 91.272 C 485.525 91.272, 484.512 91.467, 485.750 91.706 M 505.750 91.706 C 506.988 91.944, 509.012 91.944, 510.250 91.706 C 511.488 91.467, 510.475 91.272, 508 91.272 C 505.525 91.272, 504.512 91.467, 505.750 91.706 M 101.250 92.716 C 102.763 92.945, 105.237 92.945, 106.750 92.716 C 108.263 92.487, 107.025 92.300, 104 92.300 C 100.975 92.300, 99.737 92.487, 101.250 92.716 M 474.264 92.718 C 475.784 92.947, 478.034 92.941, 479.264 92.704 C 480.494 92.467, 479.250 92.279, 476.500 92.286 C 473.750 92.294, 472.744 92.488, 474.264 92.718 M 516.762 92.707 C 518.006 92.946, 519.806 92.937, 520.762 92.687 C 521.718 92.437, 520.700 92.241, 518.500 92.252 C 516.300 92.263, 515.518 92.468, 516.762 92.707 M 81.750 94.706 C 82.987 94.944, 85.013 94.944, 86.250 94.706 C 87.487 94.467, 86.475 94.272, 84 94.272 C 81.525 94.272, 80.513 94.467, 81.750 94.706 M 451.750 94.706 C 452.988 94.944, 455.012 94.944, 456.250 94.706 C 457.488 94.467, 456.475 94.272, 454 94.272 C 451.525 94.272, 450.512 94.467, 451.750 94.706 M 71.762 95.707 C 73.006 95.946, 74.806 95.937, 75.762 95.687 C 76.718 95.437, 75.700 95.241, 73.500 95.252 C 71.300 95.263, 70.518 95.468, 71.762 95.707 M 85.500 96.981 C 83.850 97.391, 88.125 97.500, 95 97.225 C 101.875 96.950, 107.688 96.561, 107.917 96.362 C 108.703 95.679, 88.500 96.237, 85.500 96.981 M 124.762 96.707 C 126.006 96.946, 127.806 96.937, 128.762 96.687 C 129.718 96.437, 128.700 96.241, 126.500 96.252 C 124.300 96.263, 123.518 96.468, 124.762 96.707 M 454 97.583 C 448.953 98.830, 448.870 98.892, 453 98.343 C 455.475 98.014, 463.350 97.426, 470.500 97.035 L 483.500 96.326 471.500 96.275 C 464.575 96.246, 457.174 96.799, 454 97.583 M 495.762 96.707 C 497.006 96.946, 498.806 96.937, 499.762 96.687 C 500.718 96.437, 499.700 96.241, 497.500 96.252 C 495.300 96.263, 494.518 96.468, 495.762 96.707 M 3.264 97.718 C 4.784 97.947, 7.034 97.941, 8.264 97.704 C 9.494 97.467, 8.250 97.279, 5.500 97.286 C 2.750 97.294, 1.744 97.488, 3.264 97.718 M 49.250 97.716 C 50.763 97.945, 53.237 97.945, 54.750 97.716 C 56.263 97.487, 55.025 97.300, 52 97.300 C 48.975 97.300, 47.737 97.487, 49.250 97.716 M 371.187 98.750 C 371.387 99.799, 372.518 100.566, 374.010 100.664 C 376.218 100.809, 376.245 100.773, 374.250 100.344 C 370.426 99.523, 371.762 98.128, 376.750 97.735 L 381.500 97.360 376.177 97.180 C 371.594 97.025, 370.900 97.243, 371.187 98.750 M 421.250 97.716 C 422.762 97.945, 425.238 97.945, 426.750 97.716 C 428.262 97.487, 427.025 97.300, 424 97.300 C 420.975 97.300, 419.738 97.487, 421.250 97.716 M 187 102.287 C 187 102.515, 189.332 104.151, 192.182 105.922 C 195.032 107.694, 196.858 108.534, 196.239 107.788 C 195.060 106.368, 187 101.568, 187 102.287 M 56.402 104.395 C 56.108 105.162, 56.046 107.524, 56.265 109.645 C 56.651 113.373, 56.669 113.346, 56.832 108.833 C 56.928 106.177, 57.539 103.949, 58.250 103.662 C 59.229 103.267, 59.222 103.141, 58.219 103.079 C 57.514 103.036, 56.696 103.628, 56.402 104.395 M 426 163.470 L 426 219.940 413.250 220.253 L 400.500 220.565 413.750 220.783 L 427 221 427 164 C 427 132.650, 426.775 107, 426.500 107 C 426.225 107, 426 132.412, 426 163.470 M 214.374 148.500 C 214.376 154.550, 214.541 156.896, 214.740 153.713 C 214.939 150.531, 214.937 145.581, 214.736 142.713 C 214.535 139.846, 214.372 142.450, 214.374 148.500 M 399.343 146.500 C 399.346 150.900, 399.522 152.576, 399.733 150.224 C 399.945 147.872, 399.942 144.272, 399.727 142.224 C 399.512 140.176, 399.339 142.100, 399.343 146.500 M 29.320 152 C 29.320 155.575, 29.502 157.037, 29.723 155.250 C 29.945 153.463, 29.945 150.537, 29.723 148.750 C 29.502 146.963, 29.320 148.425, 29.320 152 M 400.439 192 C 400.439 207.125, 400.578 213.313, 400.748 205.750 C 400.917 198.188, 400.917 185.813, 400.748 178.250 C 400.578 170.688, 400.439 176.875, 400.439 192 M 177.750 178.447 C 176.238 180.342, 175 182.204, 175 182.584 C 175 182.964, 176.350 181.576, 178 179.500 C 180.778 176.004, 181.392 175, 180.750 175 C 180.613 175, 179.262 176.551, 177.750 178.447 M 544.701 182.497 C 542.062 185.506, 537 190.040, 533.451 192.572 C 526.022 197.873, 524.642 199.712, 531.750 194.840 C 537.460 190.925, 545.430 183.610, 548.156 179.781 C 551.186 175.526, 549.992 176.465, 544.701 182.497 M 200.453 187.250 L 196.500 191.500 200.750 187.547 C 203.088 185.373, 205 183.460, 205 183.297 C 205 182.540, 204.129 183.298, 200.453 187.250 M 56.397 200 C 56.397 207.975, 56.553 211.238, 56.743 207.250 C 56.932 203.262, 56.932 196.738, 56.743 192.750 C 56.553 188.762, 56.397 192.025, 56.397 200 M 166.455 189.775 C 164.231 191.824, 161.081 194.537, 159.455 195.805 L 156.500 198.110 160 195.873 C 163.949 193.349, 172.343 185.987, 171.228 186.025 C 170.827 186.039, 168.680 187.726, 166.455 189.775 M 181.250 203.115 C 177.841 205.298, 176.738 206.764, 179.750 205.108 C 182.044 203.847, 185.639 201.068, 185 201.049 C 184.725 201.040, 183.037 201.970, 181.250 203.115 M 551.742 202.914 C 547.633 205.549, 547.063 206.476, 550.687 204.634 C 552.439 203.743, 554.153 202.561, 554.496 202.007 C 555.297 200.710, 555.058 200.789, 551.742 202.914 M 137 208.500 C 132.325 210.920, 128.847 212.922, 129.272 212.950 C 130.335 213.019, 146 205.096, 146 204.489 C 146 203.811, 146.424 203.622, 137 208.500 M 165 212 C 163.075 213.054, 161.950 213.916, 162.500 213.916 C 163.050 213.916, 165.075 213.054, 167 212 C 168.925 210.946, 170.050 210.084, 169.500 210.084 C 168.950 210.084, 166.925 210.946, 165 212 M 534 212.500 C 531.525 213.825, 529.950 214.910, 530.500 214.910 C 531.050 214.910, 533.525 213.825, 536 212.500 C 538.475 211.175, 540.050 210.090, 539.500 210.090 C 538.950 210.090, 536.475 211.175, 534 212.500 M 498 213 C 496.075 214.054, 494.950 214.916, 495.500 214.916 C 496.050 214.916, 498.075 214.054, 500 213 C 501.925 211.946, 503.050 211.084, 502.500 211.084 C 501.950 211.084, 499.925 211.946, 498 213 M 30.150 217.750 L 30 221 42.941 221 C 50.059 221, 56.092 220.662, 56.348 220.250 C 56.604 219.838, 51.038 219.637, 43.979 219.805 L 31.143 220.109 30.722 217.305 C 30.319 214.627, 30.293 214.647, 30.150 217.750 M 487.750 217.572 C 482.446 220.449, 484.696 221.004, 500.750 220.780 L 516.500 220.559 502.250 220.252 C 494.413 220.083, 488 219.576, 488 219.125 C 488 218.675, 489.012 217.817, 490.250 217.220 C 491.488 216.624, 492.050 216.123, 491.500 216.108 C 490.950 216.093, 489.262 216.751, 487.750 217.572 M 116.250 218.220 C 115.013 218.817, 114 219.687, 114 220.153 C 114 220.619, 121.088 220.901, 129.750 220.781 L 145.500 220.561 131.654 220.252 C 119.960 219.990, 117.896 219.714, 118.373 218.471 C 118.683 217.662, 118.839 217.030, 118.719 217.068 C 118.598 217.105, 117.487 217.624, 116.250 218.220 M 100.297 245.141 C 94.255 246.203, 92.237 247.557, 88.933 252.767 C 82.673 262.638, 86.369 273.969, 97 277.500 C 109.769 281.741, 121 274.219, 121 261.426 C 121 250.091, 112.075 243.071, 100.297 245.141 M 150.450 245.081 C 149.480 246.650, 149.023 266.680, 149.813 273 L 150.500 278.500 156.254 278.800 C 165.919 279.304, 172.969 277.498, 176.975 273.492 C 180.214 270.253, 180.486 269.492, 180.816 262.753 C 181.124 256.455, 180.861 255.039, 178.822 252 C 177.530 250.075, 174.905 247.761, 172.987 246.859 C 168.776 244.877, 151.422 243.508, 150.450 245.081 M 231.817 245.326 C 231.016 246.126, 228.429 249.980, 226.066 253.891 C 223.301 258.467, 221.131 261, 219.976 261 C 218.773 261, 216.812 258.506, 214.036 253.448 C 211.756 249.294, 209.255 245.651, 208.478 245.353 C 204.758 243.926, 205.436 246.350, 211.461 256.013 C 217.646 265.934, 217.999 266.829, 218 272.583 C 218 275.929, 218.296 278.963, 218.658 279.325 C 220.230 280.896, 222 277.455, 222 272.828 C 222 267.370, 222.986 265.090, 230.278 253.687 C 233.612 248.472, 234.941 245.541, 234.273 244.873 C 233.604 244.204, 232.788 244.355, 231.817 245.326 M 280.830 251.623 C 280.649 255.955, 280.725 263.550, 281 268.500 L 281.500 277.500 292.840 277.500 C 303.685 277.500, 304.268 277.392, 306.173 275.038 C 307.816 273.006, 308.052 271.694, 307.524 267.538 C 307.173 264.767, 306.766 259.800, 306.621 256.500 C 306.298 249.152, 305.445 246.395, 303.212 245.493 C 302.270 245.113, 296.924 244.564, 291.330 244.274 L 281.160 243.746 280.830 251.623 M 327 244.912 C 327 245.414, 329.925 250.437, 333.500 256.076 C 339.610 265.713, 340 266.682, 340 272.237 C 340 277.325, 340.243 278.100, 341.750 277.814 C 343.138 277.550, 343.603 276.136, 344 270.974 C 344.443 265.209, 345.155 263.413, 350.250 255.222 C 355.884 246.163, 356.833 244, 355.174 244 C 353.827 244, 350.556 248.089, 346.612 254.702 C 344.044 259.009, 342.461 260.730, 341.433 260.336 C 340.619 260.023, 338.148 256.678, 335.942 252.901 C 333.736 249.124, 331.076 245.576, 330.031 245.017 C 327.686 243.762, 327 243.738, 327 244.912 M 400.226 260.720 L 400.500 277.500 410.500 277.753 C 421.745 278.038, 424.709 277.092, 426.902 272.517 C 428.062 270.099, 428.086 268.892, 427.043 265.546 C 426.350 263.321, 425.719 258.408, 425.641 254.628 C 425.504 247.946, 425.409 247.707, 422.225 245.990 C 419.823 244.695, 416.415 244.186, 409.450 244.082 L 399.951 243.940 400.226 260.720 M 437.517 244.972 C 436.802 246.130, 436.971 274.761, 437.705 276.674 C 438.349 278.352, 459.515 278.593, 460.541 276.933 C 461.763 274.956, 459.852 274.499, 451.450 274.761 C 442.222 275.048, 440.983 274.283, 441.015 268.316 C 441.042 263.496, 442.126 262.811, 449.616 262.877 C 456.781 262.940, 459.747 262.018, 458.561 260.098 C 458.145 259.426, 455.173 259.017, 451.182 259.084 C 447.507 259.145, 443.958 259.151, 443.295 259.098 C 441.828 258.979, 440.570 252.931, 441.441 250.185 C 441.997 248.434, 443.134 248.155, 450.954 247.848 C 459.964 247.495, 461.726 246.984, 460.541 245.067 C 459.703 243.711, 438.351 243.623, 437.517 244.972 M 471 259.418 C 471 267.898, 471.273 275.548, 471.607 276.418 C 472.111 277.732, 474.135 278, 483.548 278 C 490.497 278, 495.137 277.587, 495.541 276.933 C 496.667 275.112, 495.394 274.786, 486.216 274.548 C 481.324 274.420, 476.799 273.994, 476.160 273.599 C 475.522 273.205, 475 270.659, 475 267.941 L 475 263 479.750 262.872 C 491.228 262.562, 491.449 262.524, 491.792 260.791 C 492.086 259.308, 491.036 259.045, 483.815 258.791 L 475.500 258.500 475.198 253.250 L 474.895 248 483.698 247.985 C 492.622 247.969, 495.814 247.126, 494.569 245.112 C 494.130 244.401, 489.757 244, 482.441 244 L 471 244 471 259.418 M 511.500 245.861 C 507.457 248.358, 505.389 250.825, 503.451 255.463 C 498.530 267.241, 509.647 279.751, 523.120 277.597 C 528.392 276.754, 531 275.348, 531 273.348 C 531 272.128, 530.372 271.919, 528.250 272.434 C 522.187 273.906, 515.449 274.058, 513.030 272.778 C 507.017 269.596, 504.354 261.084, 507.480 255.039 C 511.020 248.194, 517.897 246.268, 526.739 249.644 C 531.553 251.483, 532.666 251.112, 531.102 248.191 C 528.829 243.944, 516.899 242.525, 511.500 245.861 M 541.844 244.950 C 541.655 245.508, 541.725 253.060, 542 261.732 L 542.500 277.500 553.500 277.500 C 562.611 277.500, 564.500 277.242, 564.500 276 C 564.500 274.816, 563.024 274.485, 557.500 274.428 C 545.150 274.301, 546 274.739, 546 268.500 L 546 263 554.573 263 C 562.203 263, 563.109 262.807, 562.801 261.250 C 562.506 259.758, 561.277 259.500, 554.477 259.500 L 546.500 259.500 546.201 253.788 L 545.902 248.076 555.201 247.788 C 562.672 247.557, 564.500 247.205, 564.500 246 C 564.500 244.773, 562.468 244.449, 553.344 244.218 C 546.442 244.044, 542.057 244.323, 541.844 244.950 M 576 260.999 L 576 278.063 587.668 277.782 C 595.710 277.588, 599.462 277.123, 599.739 276.287 C 600.033 275.404, 597.472 274.996, 590.321 274.787 L 580.500 274.500 580.200 268.750 L 579.900 263 586.868 263 C 594.841 263, 597 262.416, 597 260.261 C 597 258.985, 595.801 258.823, 589.643 259.266 C 585.597 259.557, 581.778 259.481, 581.156 259.096 C 580.534 258.712, 579.907 256.170, 579.762 253.449 L 579.500 248.500 589 248 C 596.556 247.602, 598.500 247.193, 598.500 246 C 598.500 244.772, 596.458 244.449, 587.250 244.217 L 576 243.934 576 260.999 M 31.226 261.750 L 31.500 278.500 37 278.825 C 44.399 279.263, 54.426 278.140, 56.470 276.646 C 58.855 274.902, 59.636 267.619, 57.747 264.737 C 56.613 263.005, 56.363 260.656, 56.746 255.307 L 57.256 248.184 54.177 246.592 C 51.960 245.445, 48.282 245, 41.025 245 L 30.952 245 31.226 261.750 M 35.406 249.386 C 35.113 250.148, 35.015 252.735, 35.187 255.136 L 35.500 259.500 42.842 259.796 C 51.498 260.144, 53 259.265, 53 253.853 C 53 250.584, 52.584 249.792, 50.435 248.975 C 46.427 247.451, 36.039 247.735, 35.406 249.386 M 97.085 249.752 C 92.852 251.918, 90 257.131, 90 262.700 C 90 266.002, 90.678 267.703, 93.091 270.451 C 99.060 277.249, 108.530 276.912, 114.611 269.686 C 116.873 266.997, 117.156 265.898, 116.774 261.289 C 115.911 250.878, 106.106 245.133, 97.085 249.752 M 154.222 261.750 L 154.500 275.500 160.716 275.213 C 167.966 274.879, 173.227 272.941, 175.433 269.792 C 177.320 267.098, 177.492 258.553, 175.732 255 C 173.827 251.155, 166.627 248, 159.760 248 L 153.944 248 154.222 261.750 M 285 253.539 L 285 259.078 293.750 258.789 L 302.500 258.500 302.820 255.156 C 303.352 249.608, 300.998 248, 292.345 248 L 285 248 285 253.539 M 404 253.500 L 404 259 412.441 259 C 417.363 259, 421.158 258.553, 421.544 257.929 C 421.908 257.340, 421.907 254.865, 421.542 252.429 L 420.877 248 412.439 248 L 404 248 404 253.500 M 285.199 268.712 L 285.500 274.500 290.500 274.790 C 293.250 274.950, 297.300 274.704, 299.500 274.245 L 303.500 273.410 303.500 268.455 L 303.500 263.500 294.199 263.212 L 284.898 262.924 285.199 268.712 M 404 268.481 C 404 273.547, 404.196 274.011, 406.596 274.613 C 410.034 275.476, 420.937 274.297, 422.648 272.877 C 423.407 272.247, 424 269.836, 424 267.378 L 424 263 414 263 L 404 263 404 268.481 M 35 268.418 C 35 275.500, 35.463 276.008, 41.857 275.944 C 44.961 275.913, 49.075 275.350, 51 274.694 C 53.936 273.692, 54.551 272.965, 54.818 270.185 C 55.334 264.812, 53.897 264, 43.878 264 L 35 264 35 268.418 M 42.952 304.733 L 55.906 305.057 56.287 311.279 L 56.669 317.500 56.584 311 L 56.500 304.500 43.249 304.455 L 29.997 304.409 42.952 304.733 M 205.651 304.750 C 205.394 305.163, 209.080 305.380, 213.842 305.232 C 229.115 304.760, 230.830 304.354, 218.309 304.175 C 211.604 304.079, 205.908 304.337, 205.651 304.750 M 314.833 305.313 C 314.650 305.966, 314.500 350.818, 314.500 404.984 C 314.500 497.981, 314.597 503.486, 316.250 503.807 C 317.907 504.129, 318 498.873, 318 404.680 C 318 319.770, 317.793 305.134, 316.583 304.670 C 315.803 304.371, 315.016 304.660, 314.833 305.313 M 404 304.664 C 414.827 305.394, 427.004 305.439, 427.002 304.750 C 427.001 304.337, 420.813 304.081, 413.250 304.180 C 405.688 304.279, 401.525 304.497, 404 304.664 M 575.079 305.722 C 575.125 306.769, 575.365 306.986, 575.662 306.250 C 576.029 305.341, 579.671 305, 589.010 305 C 598.394 305, 601.966 305.337, 602.273 306.250 C 602.515 306.970, 602.646 306.863, 602.584 306 C 602.494 304.759, 600.100 304.452, 588.738 304.222 C 576.109 303.966, 575.006 304.087, 575.079 305.722 M 400.407 325 C 400.407 334.075, 400.559 337.788, 400.744 333.250 C 400.929 328.712, 400.929 321.288, 400.744 316.750 C 400.559 312.212, 400.407 315.925, 400.407 325 M 426.460 355 C 426.460 379.475, 426.590 389.488, 426.749 377.250 C 426.908 365.013, 426.908 344.988, 426.749 332.750 C 426.590 320.513, 426.460 330.525, 426.460 355 M 603.272 315 C 603.272 317.475, 603.467 318.488, 603.706 317.250 C 603.944 316.012, 603.944 313.988, 603.706 312.750 C 603.467 311.512, 603.272 312.525, 603.272 315 M 207.385 327 C 207.385 333.875, 207.545 336.688, 207.740 333.250 C 207.936 329.813, 207.936 324.188, 207.740 320.750 C 207.545 317.313, 207.385 320.125, 207.385 327 M 234.355 325.500 C 234.352 330.450, 234.521 332.601, 234.731 330.280 C 234.940 327.959, 234.943 323.909, 234.736 321.280 C 234.530 318.651, 234.358 320.550, 234.355 325.500 M 578.349 327 C 578.349 331.675, 578.522 333.587, 578.732 331.250 C 578.943 328.913, 578.943 325.087, 578.732 322.750 C 578.522 320.413, 578.349 322.325, 578.349 327 M 603.286 336.500 C 603.294 339.250, 603.488 340.256, 603.718 338.736 C 603.947 337.216, 603.941 334.966, 603.704 333.736 C 603.467 332.506, 603.279 333.750, 603.286 336.500 M 29.300 354 C 29.300 357.025, 29.487 358.262, 29.716 356.750 C 29.945 355.238, 29.945 352.762, 29.716 351.250 C 29.487 349.738, 29.300 350.975, 29.300 354 M 399.328 360.500 C 399.333 364.350, 399.513 365.802, 399.730 363.728 C 399.946 361.653, 399.943 358.503, 399.722 356.728 C 399.501 354.952, 399.324 356.650, 399.328 360.500 M 569.202 366.522 C 568.005 368.985, 567.236 371, 567.493 371 C 568.170 371, 572.211 362.877, 571.758 362.425 C 571.549 362.215, 570.398 364.059, 569.202 366.522 M 28.272 369 C 28.272 371.475, 28.467 372.488, 28.706 371.250 C 28.944 370.012, 28.944 367.988, 28.706 366.750 C 28.467 365.512, 28.272 366.525, 28.272 369 M 186.045 384.339 L 178.589 392.500 185.366 386 C 190.893 380.699, 195.176 375.657, 193.785 376.089 C 193.628 376.137, 190.145 379.850, 186.045 384.339 M 584.453 383.250 L 580.500 387.500 584.750 383.547 C 588.702 379.871, 589.460 379, 588.703 379 C 588.540 379, 586.627 380.913, 584.453 383.250 M 209.971 387.750 L 203.500 394.500 210.250 388.029 C 213.963 384.470, 217 381.432, 217 381.279 C 217 380.543, 215.982 381.480, 209.971 387.750 M 174.045 394.624 C 169.341 397.964, 168.927 398.546, 172.573 396.693 C 174.263 395.834, 176.230 394.427, 176.945 393.566 C 178.649 391.513, 178.193 391.679, 174.045 394.624 M 391.114 397.060 C 389.870 398.743, 387.423 400.991, 385.676 402.056 C 383.929 403.121, 383.047 403.994, 383.715 403.996 C 385.241 404.001, 391.741 398.352, 393.073 395.863 C 394.573 393.060, 393.657 393.620, 391.114 397.060 M 19.566 398.750 C 17.405 401.512, 17.232 401.976, 18.909 400.511 C 20.914 398.760, 23.558 395, 22.785 395 C 22.628 395, 21.180 396.688, 19.566 398.750 M 536.500 399.061 C 528.801 403.359, 528.300 404.419, 535.783 400.580 C 540.149 398.339, 545.157 395.005, 544 395.108 C 543.725 395.133, 540.350 396.912, 536.500 399.061 M 192.741 400.374 C 187.937 403.327, 186.596 404.722, 190.500 402.703 C 193.635 401.083, 197.863 398.064, 197 398.063 C 196.725 398.063, 194.808 399.103, 192.741 400.374 M 371.667 406.667 C 370.183 408.150, 371.174 408.993, 374.250 408.864 C 376.626 408.764, 376.891 408.611, 375.235 408.292 C 373.990 408.053, 373.229 407.439, 373.544 406.929 C 374.199 405.869, 372.677 405.657, 371.667 406.667 M 54.250 409.728 C 56.313 409.944, 59.688 409.944, 61.750 409.728 C 63.813 409.513, 62.125 409.336, 58 409.336 C 53.875 409.336, 52.188 409.513, 54.250 409.728 M 422.750 409.732 C 425.087 409.943, 428.913 409.943, 431.250 409.732 C 433.587 409.522, 431.675 409.349, 427 409.349 C 422.325 409.349, 420.413 409.522, 422.750 409.732 M 105.797 410.745 C 110.361 410.930, 117.561 410.929, 121.797 410.742 C 126.034 410.555, 122.300 410.404, 113.500 410.405 C 104.700 410.406, 101.234 410.559, 105.797 410.745 M 468.768 410.725 C 470.565 410.947, 473.265 410.943, 474.768 410.715 C 476.271 410.486, 474.800 410.304, 471.500 410.310 C 468.200 410.315, 466.971 410.502, 468.768 410.725 M 485.280 410.736 C 487.909 410.943, 491.959 410.940, 494.280 410.731 C 496.601 410.521, 494.450 410.352, 489.500 410.355 C 484.550 410.358, 482.651 410.530, 485.280 410.736 M 86.762 412.707 C 88.006 412.946, 89.806 412.937, 90.762 412.687 C 91.718 412.437, 90.700 412.241, 88.500 412.252 C 86.300 412.263, 85.518 412.468, 86.762 412.707 M 456.750 412.706 C 457.988 412.944, 460.012 412.944, 461.250 412.706 C 462.488 412.467, 461.475 412.272, 459 412.272 C 456.525 412.272, 455.512 412.467, 456.750 412.706 M 96.750 413.706 C 97.987 413.944, 100.013 413.944, 101.250 413.706 C 102.487 413.467, 101.475 413.272, 99 413.272 C 96.525 413.272, 95.513 413.467, 96.750 413.706 M 108.264 414.718 C 109.784 414.947, 112.034 414.941, 113.264 414.704 C 114.494 414.467, 113.250 414.279, 110.500 414.286 C 107.750 414.294, 106.744 414.488, 108.264 414.718 M 142.762 414.707 C 144.006 414.946, 145.806 414.937, 146.762 414.687 C 147.718 414.437, 146.700 414.241, 144.500 414.252 C 142.300 414.263, 141.518 414.468, 142.762 414.707 M 476.728 414.722 C 478.503 414.943, 481.653 414.946, 483.728 414.730 C 485.802 414.513, 484.350 414.333, 480.500 414.328 C 476.650 414.324, 474.952 414.501, 476.728 414.722 M 510.264 414.718 C 511.784 414.947, 514.034 414.941, 515.264 414.704 C 516.494 414.467, 515.250 414.279, 512.500 414.286 C 509.750 414.294, 508.744 414.488, 510.264 414.718 M 122.728 415.722 C 124.503 415.943, 127.653 415.946, 129.728 415.730 C 131.802 415.513, 130.350 415.333, 126.500 415.328 C 122.650 415.324, 120.952 415.501, 122.728 415.722 M 35.116 536.250 C 35.214 538.144, 35.308 538.202, 35.716 536.614 C 36.153 534.906, 36.971 534.775, 44.350 535.224 C 48.832 535.497, 51.375 535.378, 50 534.960 C 48.625 534.542, 44.688 534.155, 41.250 534.100 C 35.373 534.006, 35.007 534.134, 35.116 536.250 M 263.500 548.124 C 263.500 556.031, 263.098 563.802, 262.606 565.393 L 261.711 568.287 269.106 567.586 C 283.748 566.197, 286 564.714, 286 556.458 C 286 553.888, 285.359 552.626, 283.403 551.344 C 280.924 549.720, 280.836 549.356, 281.474 543.395 C 282.089 537.659, 281.966 537.052, 279.980 535.990 C 278.791 535.353, 274.596 534.588, 270.659 534.290 L 263.500 533.748 263.500 548.124 M 460.491 535.180 C 460.216 535.906, 460.105 538.300, 460.245 540.500 L 460.500 544.500 454.904 545 C 446.434 545.757, 443.577 548.986, 443.875 557.466 C 444.011 561.358, 444.619 563.067, 446.554 565 C 448.895 567.339, 449.617 567.481, 457.737 567.207 C 462.512 567.046, 466.456 566.821, 466.501 566.707 C 466.546 566.593, 466.340 559.300, 466.042 550.500 C 465.512 534.847, 465.451 534.493, 463.246 534.180 C 462.006 534.004, 460.766 534.454, 460.491 535.180 M 41.015 537.750 C 41.027 539.142, 41.210 539.217, 41.909 538.113 C 42.444 537.268, 43.793 536.918, 45.363 537.219 C 46.780 537.489, 47.702 537.326, 47.411 536.856 C 47.120 536.385, 45.559 536, 43.941 536 C 41.801 536, 41.004 536.477, 41.015 537.750 M 269.090 537.310 C 267.372 539.028, 267.733 545.684, 269.582 546.393 C 274.588 548.314, 277.773 545.688, 276.371 540.797 C 275.384 537.355, 271.098 535.302, 269.090 537.310 M 509.094 541.500 C 508.983 543.249, 510.426 544.492, 512.882 544.762 C 514.935 544.987, 515.085 544.808, 513.972 543.466 C 513.261 542.610, 512.106 542.129, 511.404 542.398 C 510.703 542.667, 509.911 542.350, 509.644 541.694 C 509.376 541.037, 509.129 540.950, 509.094 541.500 M 182.762 542.707 C 184.006 542.946, 185.806 542.937, 186.762 542.687 C 187.718 542.437, 186.700 542.241, 184.500 542.252 C 182.300 542.263, 181.518 542.468, 182.762 542.707 M 190.550 544.270 C 190.863 545.086, 190.047 546.113, 188.539 546.800 C 187.142 547.437, 186.007 548.529, 186.015 549.229 C 186.026 550.116, 186.252 550.163, 186.765 549.385 C 187.169 548.771, 188.512 547.954, 189.750 547.567 C 192.064 546.845, 192.764 544.591, 191.011 543.507 C 190.468 543.171, 190.260 543.514, 190.550 544.270 M 41.872 545.250 C 42.629 546.215, 44.424 546.939, 45.872 546.864 L 48.500 546.728 46 546.268 C 44.625 546.015, 42.825 545.289, 42 544.654 C 40.695 543.650, 40.678 543.727, 41.872 545.250 M 77.250 545.989 C 75.463 547.079, 74 548.196, 74 548.471 C 74 548.746, 75.463 548.079, 77.250 546.989 C 81.167 544.601, 86.656 544.425, 90.027 546.580 L 92.500 548.160 90.139 546.080 C 87.114 543.415, 81.537 543.375, 77.250 545.989 M 113.762 544.707 C 115.006 544.946, 116.806 544.937, 117.762 544.687 C 118.718 544.437, 117.700 544.241, 115.500 544.252 C 113.300 544.263, 112.518 544.468, 113.762 544.707 M 145.704 544.715 C 147.614 545.070, 147.957 545.882, 148.275 550.812 L 148.643 556.500 148.571 550.500 C 148.504 544.812, 148.370 544.495, 146 544.404 C 143.920 544.323, 143.870 544.376, 145.704 544.715 M 161.712 544.716 C 163.753 545.094, 163.951 545.778, 164.274 553.565 L 164.624 562.005 164.562 553.253 C 164.501 544.626, 164.464 544.499, 162 544.404 C 159.903 544.323, 159.857 544.373, 161.712 544.716 M 207 544.739 C 207 545.212, 208.533 545.419, 210.408 545.201 C 212.915 544.908, 213.945 545.230, 214.306 546.421 C 214.702 547.727, 214.766 547.698, 214.640 546.270 C 214.526 544.983, 213.462 544.415, 210.742 544.190 C 208.684 544.019, 207 544.266, 207 544.739 M 224.079 545.750 C 224.126 546.795, 224.361 546.997, 224.662 546.250 C 224.940 545.563, 225.992 545, 227 545 C 228.008 545, 229.060 545.563, 229.338 546.250 C 229.639 546.997, 229.874 546.795, 229.921 545.750 C 229.979 544.455, 229.221 544, 227 544 C 224.779 544, 224.021 544.455, 224.079 545.750 M 308.557 544.970 C 302.741 546.117, 300 549.796, 300 556.452 C 300 561.349, 300.304 562.060, 303.664 565.010 C 306.994 567.934, 307.745 568.170, 311.899 567.600 C 316.248 567.004, 321.118 563.784, 319.745 562.412 C 319.392 562.058, 317.662 562.271, 315.902 562.884 C 314.142 563.498, 311.419 564, 309.851 564 C 307.192 564, 307 563.731, 307 560 C 307 557.800, 306.559 556, 306.019 556 C 304.416 556, 303.660 551.115, 305.011 549.487 C 305.754 548.591, 307.961 548, 310.563 548 C 317.258 548, 317.243 549.435, 310.500 554.449 C 308.565 555.888, 308.591 555.937, 311.300 555.968 C 316.056 556.022, 320 553.361, 320 550.097 C 320 545.382, 315.864 543.529, 308.557 544.970 M 334.445 545.281 C 334.145 546.063, 335.754 551.026, 338.020 556.310 C 340.463 562.004, 342.010 567.053, 341.820 568.708 C 341.541 571.143, 340.989 571.564, 337.500 572 C 334.299 572.400, 333.436 572.950, 333.180 574.750 C 332.902 576.712, 333.305 577, 336.325 577 C 340.973 577, 343.612 574.081, 347.769 564.345 C 354.190 549.308, 355.292 545.892, 354.107 544.707 C 352.416 543.016, 351.156 544.905, 350.036 550.812 C 349.489 553.695, 348.563 556.947, 347.979 558.040 C 346.366 561.053, 343.295 558.849, 341.980 553.733 C 339.865 545.501, 339.362 544.503, 337.167 544.180 C 335.963 544.003, 334.747 544.495, 334.445 545.281 M 377.084 545.038 C 369.468 546.143, 365.777 554.022, 368.957 562.387 C 370.959 567.651, 378.994 569.238, 386.451 565.840 C 389.171 564.601, 390.374 560.829, 390.455 553.286 C 390.526 546.609, 385.905 543.759, 377.084 545.038 M 506.512 547.974 C 505.508 550.199, 504.982 552.316, 505.344 552.677 C 505.705 553.038, 506 552.610, 506 551.726 C 506 550.841, 506.450 549.840, 507 549.500 C 507.604 549.127, 508 550.490, 508 552.941 C 508 555.744, 507.569 557, 506.607 557 C 504.841 557, 503.593 559.644, 503.541 563.500 C 503.508 565.886, 503.012 566.569, 501.116 566.837 L 498.732 567.174 501.366 562.461 C 502.815 559.869, 503.979 557.242, 503.953 556.624 C 503.905 555.485, 498.134 565.868, 498.047 567.250 C 497.971 568.462, 502.491 568.109, 503.800 566.800 C 504.460 566.140, 505.007 564.452, 505.015 563.050 C 505.042 558.546, 506.349 557.642, 512.667 557.757 C 517.004 557.836, 517.859 557.650, 516 557.031 C 514.310 556.469, 514.067 556.167, 515.250 556.100 C 516.571 556.024, 516.963 555.203, 516.850 552.750 C 516.717 549.865, 516.655 549.798, 516.293 552.156 C 516.014 553.976, 515.102 555.008, 513.397 555.437 C 509.658 556.375, 508.713 555.241, 509.251 550.463 C 509.942 544.332, 508.674 543.179, 506.512 547.974 M 550 545 C 547.990 545.644, 547.892 545.806, 549.500 545.830 C 550.600 545.846, 552.400 545.473, 553.500 545 C 556.048 543.905, 553.419 543.905, 550 545 M 586 544.987 C 584.974 545.641, 585.705 545.750, 588.313 545.331 C 591.295 544.851, 592.822 545.201, 595.313 546.932 L 598.500 549.146 595.694 546.573 C 592.819 543.936, 588.704 543.263, 586 544.987 M 108 546.500 C 108 547.666, 109.170 547.960, 113.250 547.820 L 118.500 547.640 113.725 547.264 C 111.070 547.055, 109.210 546.469, 109.534 545.944 C 109.855 545.425, 109.641 545, 109.059 545 C 108.477 545, 108 545.675, 108 546.500 M 406.604 548.750 C 407.670 553.590, 407.703 559.513, 406.690 564.314 L 405.885 568.128 409.693 567.814 C 412.505 567.582, 413.393 567.108, 413.089 566 C 412.863 565.175, 412.474 561.458, 412.225 557.739 C 411.702 549.913, 412.719 547.993, 417.372 548.015 C 422.751 548.042, 423.396 549.085, 423.972 558.696 L 424.500 567.500 427.500 567.500 C 429.587 567.500, 430.441 567.043, 430.305 566 C 429.900 562.879, 426.045 546.881, 425.476 545.961 C 425.149 545.433, 420.583 545, 415.330 545 L 405.777 545 406.604 548.750 M 561.300 550 C 561.300 553.025, 561.487 554.263, 561.716 552.750 C 561.945 551.237, 561.945 548.763, 561.716 547.250 C 561.487 545.737, 561.300 546.975, 561.300 550 M 580.750 547.080 C 579.788 547.641, 579 548.554, 579 549.109 C 579 549.664, 579.412 549.864, 579.915 549.553 C 580.418 549.242, 580.980 549.409, 581.165 549.924 C 581.349 550.439, 582.400 550.170, 583.500 549.327 C 585.438 547.840, 585.423 547.813, 583 548.448 C 580.597 549.078, 580.575 549.043, 582.441 547.552 C 584.607 545.820, 583.462 545.501, 580.750 547.080 M 81.762 547.707 C 83.006 547.946, 84.806 547.937, 85.762 547.687 C 86.718 547.437, 85.700 547.241, 83.500 547.252 C 81.300 547.263, 80.518 547.468, 81.762 547.707 M 547.655 548.829 C 545.052 551.705, 545.516 555.866, 548.569 557.026 C 551.246 558.044, 555.620 557.424, 556.567 555.892 C 556.878 555.388, 556.119 555.355, 554.807 555.814 C 553.538 556.258, 551.938 556.538, 551.250 556.436 C 550.563 556.334, 549.325 556.194, 548.500 556.125 C 546.637 555.970, 546.456 550.696, 548.263 549.197 C 548.957 548.621, 551.320 547.966, 553.513 547.743 L 557.500 547.336 553.405 547.168 C 550.550 547.051, 548.809 547.554, 547.655 548.829 M 226.572 550.750 C 225.305 553.086, 225.069 553.199, 225.004 551.500 C 224.947 550.016, 221 559.098, 221 560.712 C 221 560.870, 220.213 561.014, 219.250 561.032 C 217.583 561.062, 217.583 561.127, 219.250 562.392 C 220.213 563.123, 221.029 564.346, 221.063 565.110 C 221.098 565.875, 221.549 565.446, 222.065 564.158 C 222.582 562.869, 222.708 561.337, 222.347 560.753 C 221.977 560.153, 222.162 559.982, 222.773 560.360 C 224.163 561.219, 225.257 557.834, 224.353 555.477 C 223.928 554.371, 224.050 553.913, 224.665 554.293 C 225.218 554.635, 226.412 553.359, 227.319 551.457 C 229.278 547.350, 228.709 546.811, 226.572 550.750 M 374.096 549.384 C 371.614 552.374, 373.244 563.112, 376.361 564.308 C 377.009 564.557, 379.330 564.462, 381.519 564.097 L 385.500 563.435 385.394 557.059 C 385.312 552.110, 384.878 550.384, 383.453 549.342 C 381.063 547.594, 375.561 547.619, 374.096 549.384 M 449.200 549.200 C 447.582 550.818, 447.674 559.172, 449.334 561.442 C 450.595 563.166, 459.356 565.311, 460.493 564.174 C 461.189 563.478, 461.111 556.306, 460.358 551.750 C 459.745 548.041, 459.688 548, 455.069 548 C 452.501 548, 449.860 548.540, 449.200 549.200 M 119 550.427 C 119 551.211, 118.213 552.059, 117.250 552.311 C 115.933 552.655, 116.057 552.797, 117.750 552.884 C 119.372 552.968, 120 552.442, 120 551 C 120 549.900, 119.775 549, 119.500 549 C 119.225 549, 119 549.642, 119 550.427 M 268.667 550.667 C 268.300 551.033, 268 554.175, 268 557.648 C 268 563.553, 268.162 564.003, 270.507 564.591 C 274.060 565.483, 279.698 564.229, 280.403 562.391 C 281.236 560.223, 281.121 554.739, 280.214 553.313 C 278.669 550.883, 270.355 548.978, 268.667 550.667 M 186.286 555.500 C 186.294 558.250, 186.488 559.256, 186.718 557.736 C 186.947 556.216, 186.941 553.966, 186.704 552.736 C 186.467 551.506, 186.279 552.750, 186.286 555.500 M 36.286 556.500 C 36.294 559.250, 36.488 560.256, 36.718 558.736 C 36.947 557.216, 36.941 554.966, 36.704 553.736 C 36.467 552.506, 36.279 553.750, 36.286 556.500 M 81.559 554.532 C 79.752 555.899, 79.889 555.991, 83.559 555.864 C 85.896 555.783, 86.578 555.550, 85.235 555.292 C 83.990 555.053, 83.229 554.439, 83.544 553.929 C 84.330 552.657, 83.841 552.806, 81.559 554.532 M 114.686 555.017 C 110.995 556.125, 108.985 557.860, 109.063 559.872 C 109.107 561.005, 109.395 560.834, 110.008 559.312 C 111.097 556.610, 117.670 554.481, 119.706 556.171 C 120.754 557.040, 120.908 556.925, 120.416 555.641 C 119.726 553.843, 118.897 553.752, 114.686 555.017 M 40.252 558.500 C 40.263 560.700, 40.468 561.482, 40.707 560.238 C 40.946 558.994, 40.937 557.194, 40.687 556.238 C 40.437 555.282, 40.241 556.300, 40.252 558.500 M 583.989 556.007 C 581.561 557.507, 583.472 558.696, 586.374 557.492 C 588.944 556.425, 589.035 556.242, 587.235 555.772 C 586.128 555.482, 584.667 555.588, 583.989 556.007 M 546.562 560.581 C 545.693 561.450, 545.288 562.658, 545.663 563.264 C 546.090 563.955, 546.596 563.645, 547.017 562.434 C 547.493 561.065, 548.976 560.325, 552.095 559.900 L 556.500 559.300 552.321 559.150 C 549.677 559.055, 547.562 559.580, 546.562 560.581 M 520.132 563.231 C 520.020 566.396, 520.367 567.054, 522.421 567.570 C 525.756 568.407, 528.256 567.786, 528.743 566 C 529.068 564.811, 528.959 564.776, 528.218 565.830 C 527.695 566.573, 526.007 567.015, 524.391 566.830 C 521.963 566.553, 521.401 565.940, 520.882 563 L 520.263 559.500 520.132 563.231 M 595 562.110 C 593.719 563.031, 593.746 563.110, 595.187 562.650 C 596.243 562.312, 597.042 562.745, 597.321 563.805 C 597.640 565.014, 597.801 564.854, 597.884 563.250 C 598.012 560.771, 597.269 560.477, 595 562.110 M 113.750 564.706 C 114.987 564.944, 117.013 564.944, 118.250 564.706 C 119.487 564.467, 118.475 564.272, 116 564.272 C 113.525 564.272, 112.513 564.467, 113.750 564.706 M 34.253 566 C 34.551 567.104, 36.219 567.525, 40.579 567.594 L 46.500 567.687 41.022 567.283 C 38.009 567.061, 35.162 566.344, 34.696 565.690 C 34.104 564.860, 33.970 564.953, 34.253 566 M 49.500 566 C 46.732 566.704, 46.694 566.771, 49 566.866 C 50.375 566.923, 52.175 566.533, 53 566 C 54.702 564.900, 53.822 564.900, 49.500 566 M 122 566.026 L 115.500 566.553 121.848 567.026 C 125.339 567.287, 128.421 567.133, 128.698 566.683 C 129.436 565.483, 129.105 565.451, 122 566.026 M 542.286 569.500 C 542.294 572.250, 542.488 573.256, 542.718 571.736 C 542.947 570.216, 542.941 567.966, 542.704 566.736 C 542.467 565.506, 542.279 566.750, 542.286 569.500 M 187.762 567.707 C 189.006 567.946, 190.806 567.937, 191.762 567.687 C 192.718 567.437, 191.700 567.241, 189.500 567.252 C 187.300 567.263, 186.518 567.468, 187.762 567.707 M 552.264 567.718 C 553.784 567.947, 556.034 567.941, 557.264 567.704 C 558.494 567.467, 557.250 567.279, 554.500 567.286 C 551.750 567.294, 550.744 567.488, 552.264 567.718 M 585.762 567.707 C 587.006 567.946, 588.806 567.937, 589.762 567.687 C 590.718 567.437, 589.700 567.241, 587.500 567.252 C 585.300 567.263, 584.518 567.468, 585.762 567.707 M 560 570.345 C 560 573.154, 556.224 575.295, 552.273 574.726 C 550.198 574.428, 549.063 574.405, 549.750 574.675 C 551.887 575.516, 551.120 576.835, 548.750 576.395 C 547.156 576.099, 547.317 576.302, 549.304 577.090 C 552.251 578.259, 560.251 577.391, 558.202 576.125 C 557.394 575.625, 557.642 574.894, 559.021 573.714 C 560.787 572.202, 561.792 569, 560.500 569 C 560.225 569, 560 569.605, 560 570.345 M 218.490 571.016 C 218.144 571.575, 217.373 571.731, 216.776 571.362 C 216.114 570.953, 215.980 571.158, 216.432 571.889 C 216.839 572.548, 216.628 573.743, 215.964 574.544 C 215.299 575.345, 215.005 576, 215.309 576 C 215.614 576, 216.825 574.650, 218 573 C 219.175 571.350, 219.907 570, 219.627 570 C 219.347 570, 218.835 570.457, 218.490 571.016 M 207.015 573.750 C 207.025 574.886, 207.290 575.093, 207.769 574.340 C 208.174 573.702, 209.855 572.982, 211.503 572.740 C 214.221 572.341, 214.151 572.286, 210.750 572.150 C 207.783 572.031, 207.003 572.365, 207.015 573.750" stroke="none" fill="#8f43b7" fill-rule="evenodd"/><path d="M 107.500 92.514 C 99.250 93.263, 83.500 94.801, 72.500 95.932 C 57.894 97.433, 45.539 97.989, 26.691 97.994 C 12.496 97.997, 1.113 98.374, 1.395 98.831 C 1.678 99.288, 4.517 100.230, 7.704 100.925 C 16.686 102.883, 19.101 104.785, 23.669 113.500 C 28.099 121.952, 29.093 131.862, 29.586 172.500 C 29.834 192.850, 30.285 211.862, 30.590 214.750 L 31.144 220 43.572 220 L 56 220 56 162.059 C 56 124.771, 56.354 103.899, 56.993 103.504 C 57.540 103.166, 65.180 101.340, 73.973 99.445 C 88.998 96.207, 91.087 96, 108.729 96.004 C 135.391 96.009, 146.619 98.093, 161.321 105.764 C 173.646 112.194, 182.623 122.180, 186.404 133.666 C 188.630 140.428, 188.702 157.760, 186.529 163.918 C 180.214 181.817, 161.013 198.438, 130.354 212.546 C 123.834 215.546, 118.350 218.451, 118.167 219.001 C 117.955 219.635, 122.968 220, 131.891 220 C 145.217 220, 146.347 219.841, 153.628 216.949 C 172.878 209.302, 187.355 200.474, 197.317 190.307 C 205.172 182.291, 208.372 177.324, 211.632 168.088 C 213.597 162.523, 213.961 159.509, 213.979 148.671 C 213.998 137.111, 213.738 135.181, 211.351 129.171 C 206.672 117.389, 201.717 111.618, 190.350 104.713 C 173.314 94.364, 140.436 89.523, 107.500 92.514 M 484 92.099 C 479.325 92.557, 467.400 93.649, 457.500 94.526 C 447.600 95.402, 436.575 96.534, 433 97.040 C 429.425 97.546, 414.238 97.969, 399.250 97.980 C 384.262 97.991, 372 98.388, 372 98.862 C 372 99.336, 374.456 100.217, 377.458 100.820 C 388.370 103.011, 393.795 109.152, 397.473 123.472 C 399.349 130.778, 400.968 164.547, 400.987 196.750 L 401 220 413.476 220 L 425.952 220 426.226 162.419 C 426.479 109.325, 426.634 104.740, 428.218 103.582 C 429.164 102.891, 437.342 100.852, 446.392 99.051 C 462.681 95.810, 463.067 95.782, 484.673 96.278 C 507.554 96.803, 512.767 97.640, 525.816 102.886 C 537.629 107.635, 548.943 117.103, 553.520 126.071 C 563.739 146.096, 559.002 170.385, 541.690 186.721 C 532.515 195.379, 514.061 206.760, 496.750 214.436 C 491.938 216.570, 488 218.695, 488 219.158 C 488 219.621, 494.290 220, 501.977 220 C 517.758 220, 520.423 219.301, 538.002 210.552 C 559.878 199.665, 572.045 188.831, 579.902 173.244 C 585.104 162.923, 586.315 143.720, 582.529 131.584 C 577.299 114.818, 560.863 101.236, 539.500 96.030 C 531.589 94.102, 502.981 90.876, 496.073 91.133 C 494.108 91.206, 488.675 91.641, 484 92.099 M 30.082 329.250 C 29.949 368.052, 27.951 385.994, 22.724 395.345 C 19.796 400.582, 16.539 402.861, 9.059 404.909 C 5.666 405.838, 2.913 407.026, 2.941 407.549 C 2.972 408.121, 17.031 408.704, 38.246 409.012 C 57.636 409.294, 73.992 409.840, 74.593 410.225 C 75.195 410.610, 85.995 411.894, 98.593 413.080 C 135.092 416.514, 157.729 414.865, 177.948 407.302 C 205.741 396.906, 223.818 377.448, 231.186 350 C 233.108 342.842, 233.471 338.974, 233.484 325.500 C 233.506 303.921, 234.302 305, 218.348 305 L 205.767 305 206.417 307.750 C 207.853 313.827, 208.230 334.001, 207.057 342.021 C 201.618 379.219, 173.393 405.037, 132.684 410.054 C 119.904 411.629, 95.824 410.721, 81.500 408.125 C 70.378 406.108, 59.850 402.950, 57.359 400.883 C 56.249 399.962, 56 391.084, 56 352.378 L 56 305 43.082 305 L 30.165 305 30.082 329.250 M 400.310 333.227 C 399.951 386.489, 396.213 400.392, 381.126 404.576 C 372.966 406.840, 372.642 406.975, 373.439 407.774 C 373.837 408.173, 389.314 408.769, 407.832 409.097 C 426.349 409.425, 444.650 410.182, 448.500 410.778 C 474.926 414.870, 511.648 415.709, 528.967 412.616 C 550.266 408.812, 567.257 400.427, 580.279 387.293 C 590.270 377.215, 595.131 369.372, 599.052 357 C 603.603 342.640, 605.021 321.588, 602.368 307.750 L 601.841 305 588.921 305 C 581.814 305, 576 305.337, 576.001 305.750 C 576.001 306.163, 576.721 309.875, 577.600 314 C 580.284 326.590, 578.160 346.073, 572.477 361 C 566.129 377.672, 550.236 394.031, 532.631 402.013 C 519.571 407.935, 508.428 410.100, 488 410.687 C 471.072 411.173, 468.276 410.997, 455.093 408.618 C 439.339 405.776, 429.220 402.702, 427.202 400.145 C 426.174 398.843, 425.937 388.807, 426.066 352 L 426.228 305.500 413.364 305.227 L 400.500 304.953 400.310 333.227 M 510.468 537.750 C 510.126 539.813, 509.428 542.810, 508.918 544.412 C 507.669 548.334, 508.488 548.906, 509.832 545.051 C 510.417 543.373, 511.359 542, 511.925 542 C 513.713 542, 515.964 546.457, 516.630 551.315 C 517.196 555.448, 517.050 556.011, 515.386 556.090 C 514.325 556.141, 514.916 556.589, 516.737 557.115 C 519.877 558.022, 520.380 558.852, 521.219 564.500 C 521.434 565.946, 522.415 566.587, 524.758 566.813 C 528.528 567.178, 528.731 566.354, 526.009 561.740 C 524.914 559.884, 523.168 555.921, 522.129 552.933 C 519.271 544.716, 515.067 535.662, 513.709 534.799 C 511.600 533.459, 511.106 533.908, 510.468 537.750 M 36.435 548.250 C 36.471 555.538, 36.096 562.806, 35.603 564.403 L 34.706 567.306 42.603 566.728 C 53.998 565.895, 56.739 564.684, 58.024 559.911 C 59.197 555.556, 58.539 553.630, 54.503 549.594 C 52.343 547.434, 52.181 546.780, 53.131 544.055 C 53.723 542.355, 53.943 539.908, 53.618 538.616 C 52.972 536.042, 49.416 535.031, 40.935 535.011 L 36.371 535 36.435 548.250 M 41 540.300 C 41 545.044, 42.314 547, 45.500 547 C 48.342 547, 50 545.141, 50 541.955 C 50 538.654, 47.179 536, 43.671 536 C 41.190 536, 41 536.306, 41 540.300 M 555.500 544.041 C 552.750 545.040, 549.247 546.128, 547.715 546.457 C 543.814 547.296, 543 550.247, 543 563.546 L 543 574.962 545.750 575.564 C 547.263 575.896, 549.063 576.340, 549.750 576.552 C 551.759 577.171, 551.197 575.943, 548.500 573.821 C 544.980 571.053, 545.248 568.400, 549.125 567.625 C 559.123 565.625, 564.196 568.944, 558.811 573.961 C 557.364 575.310, 557.091 576, 558.007 576 C 559.989 576, 565 570.938, 565 568.935 C 565 565.876, 562.118 564.665, 554.388 564.475 C 550.265 564.374, 546.437 563.837, 545.881 563.281 C 544.045 561.445, 547.802 559, 552.461 559 C 558.919 559, 560.702 556.930, 561.287 548.750 C 561.552 545.038, 561.484 542.050, 561.135 542.112 C 560.786 542.173, 558.250 543.041, 555.500 544.041 M 181.417 545.190 C 181.792 546.460, 182.451 551.358, 182.882 556.074 C 183.312 560.790, 183.992 565.178, 184.391 565.824 C 185.273 567.251, 194 567.410, 194 566 C 194 565.450, 193.305 565, 192.455 565 C 191.605 565, 189.805 563.895, 188.455 562.545 C 186.388 560.479, 186 559.132, 186 554.024 C 186 548.506, 186.229 547.853, 188.526 546.806 C 192.269 545.101, 190.981 543.541, 185.539 543.190 C 180.935 542.893, 180.764 542.976, 181.417 545.190 M 77.225 547.004 C 68.082 552.579, 71.423 567, 81.858 567 C 86.229 567, 91 565.544, 91 564.211 C 91 563.750, 88.322 563.566, 85.048 563.803 C 79.179 564.227, 79.088 564.194, 78.459 561.367 C 78.108 559.790, 77.378 557.045, 76.838 555.266 C 75.414 550.580, 76.524 548.180, 80.456 547.442 C 85.206 546.551, 87.455 547.206, 87.796 549.579 C 88.001 551.006, 87.234 552.052, 85.296 552.988 C 82.969 554.113, 82.807 554.410, 84.329 554.758 C 87.565 555.499, 92 553, 92 550.435 C 92 545.288, 83.339 543.277, 77.225 547.004 M 109.500 546 C 109.124 546.608, 110.590 547, 113.241 547 C 117.856 547, 120 548.302, 120 551.106 C 120 552.400, 118.766 552.982, 114.891 553.515 C 107.052 554.593, 103.724 559.514, 107.423 564.559 C 108.687 566.281, 109.893 566.466, 118.143 566.197 C 123.256 566.031, 127.629 565.704, 127.862 565.471 C 128.095 565.239, 127.841 564.475, 127.299 563.774 C 126.756 563.073, 125.527 559.575, 124.566 556 C 121.932 546.199, 120.893 545, 115.036 545 C 112.331 545, 109.840 545.450, 109.500 546 M 143.353 546.750 C 143.622 547.712, 144.138 551.962, 144.501 556.194 C 144.941 561.329, 145.683 564.322, 146.734 565.194 C 147.756 566.042, 151.429 566.519, 157.219 566.555 C 165.792 566.608, 166.104 566.532, 165.401 564.555 C 164.999 563.425, 164.488 558.563, 164.264 553.750 C 163.880 545.479, 163.736 545, 161.621 545 C 159.439 545, 159.395 545.222, 159.813 553.966 C 160.234 562.785, 160.199 562.952, 157.694 564.093 C 154.548 565.527, 150.456 564.608, 149.521 562.259 C 149.136 561.291, 148.572 557.013, 148.267 552.750 C 147.740 545.366, 147.600 545, 145.290 545 C 143.461 545, 142.985 545.430, 143.353 546.750 M 208.034 545.750 C 208.053 546.163, 208.937 548.300, 210 550.500 C 211.063 552.700, 211.947 554.866, 211.966 555.314 C 211.985 555.762, 213.125 558.588, 214.500 561.594 C 218.578 570.509, 217.670 572.941, 210.250 572.986 C 208.923 572.994, 208 573.615, 208 574.500 C 208 575.538, 209.042 576, 211.381 576 C 214.062 576, 215.309 575.284, 217.397 572.546 C 220.300 568.740, 221.950 563, 220.142 563 C 218.250 563, 214 553.336, 214 549.033 C 214 545.219, 213.837 545, 211 545 C 209.350 545, 208.015 545.337, 208.034 545.750 M 225.004 549.250 L 225.007 553.500 227.004 550.226 C 229.517 546.104, 229.516 545, 227 545 C 225.313 545, 225.001 545.665, 225.004 549.250 M 584.500 546.423 C 582.850 547.162, 580.435 548.786, 579.134 550.031 C 577.087 551.989, 576.853 552.907, 577.393 556.851 C 578.279 563.316, 581.999 567, 587.640 567 C 592.529 567, 597 565.276, 597 563.392 C 597 562.404, 596.322 562.340, 594.092 563.118 C 592.492 563.675, 589.455 563.990, 587.342 563.816 C 583.751 563.521, 583.479 563.272, 583.179 560 C 583.002 558.075, 582.439 556.072, 581.929 555.550 C 581.418 555.028, 581 553.361, 581 551.847 C 581 549.518, 581.577 548.934, 584.750 548.053 C 589.834 546.641, 591.533 546.733, 593 548.500 C 594.572 550.394, 592.866 552.711, 588.500 554.614 C 586.244 555.598, 585.996 555.926, 587.500 555.939 C 590.661 555.966, 598 552.249, 598 550.621 C 598 548.444, 593.127 544.994, 590.115 545.039 C 588.677 545.061, 586.150 545.683, 584.500 546.423 M 547.580 548.912 C 546.572 550.025, 545.986 551.975, 546.175 553.584 C 546.572 556.957, 550.369 558.571, 554.349 557.058 C 556.678 556.172, 557 555.500, 557 551.525 L 557 547 553.155 547 C 550.639 547, 548.712 547.661, 547.580 548.912 M 41.621 549.750 C 40.312 554.205, 39.867 559.119, 40.508 562.037 C 41.209 565.230, 41.211 565.230, 46.697 564.775 C 52.835 564.266, 53.962 563.209, 53.985 557.941 C 54.005 553.289, 52.452 551.385, 47.124 549.526 C 41.782 547.663, 42.239 547.644, 41.621 549.750 M 505.513 552.622 C 504.681 554.614, 504 556.583, 504 556.996 C 504 557.410, 502.815 559.869, 501.366 562.461 L 498.732 567.174 501.116 566.837 C 503.012 566.569, 503.508 565.886, 503.541 563.500 C 503.593 559.644, 504.841 557, 506.607 557 C 507.566 557, 508 555.752, 508 553 C 508 550.800, 507.781 549, 507.513 549 C 507.246 549, 506.346 550.630, 505.513 552.622 M 114.096 555.306 C 109.347 556.972, 108.202 559.134, 110.342 562.399 C 111.623 564.355, 112.888 565, 115.441 565 C 122.110 565, 122.733 564.180, 120.947 557.750 C 119.822 553.698, 119.258 553.496, 114.096 555.306" stroke="none" fill="#d00b3d" fill-rule="evenodd"/></svg>